<mxfile host="app.diagrams.net" modified="2024-05-14T20:13:17.679Z" agent="Mozilla/5.0 (Windows NT 10.0; Win64; x64) AppleWebKit/537.36 (KHTML, like Gecko) Chrome/124.0.0.0 Safari/537.36" etag="0rlUGFMbo0SX5mVuIvcI" version="24.4.0" type="device">
  <diagram id="SUoAWrqltAWvio9Huqa5" name="Page-1">
    <mxGraphModel dx="2333" dy="1371" grid="0" gridSize="10" guides="1" tooltips="1" connect="1" arrows="1" fold="1" page="1" pageScale="1" pageWidth="850" pageHeight="1100" math="0" shadow="0">
      <root>
        <mxCell id="0" />
        <mxCell id="1" parent="0" />
        <mxCell id="Sqf56Evtwyqj2rNOYp0b-1" value="" style="rounded=0;whiteSpace=wrap;html=1;strokeWidth=6;" parent="1" vertex="1">
          <mxGeometry x="524" y="385" width="649" height="351" as="geometry" />
        </mxCell>
        <mxCell id="Sqf56Evtwyqj2rNOYp0b-2" value="&lt;b&gt;&lt;font style=&quot;font-size: 60px;&quot;&gt;MCU&lt;/font&gt;&lt;/b&gt;" style="text;html=1;align=center;verticalAlign=middle;resizable=0;points=[];autosize=1;strokeColor=none;fillColor=none;" parent="1" vertex="1">
          <mxGeometry x="766" y="285" width="155" height="84" as="geometry" />
        </mxCell>
        <mxCell id="Sqf56Evtwyqj2rNOYp0b-15" style="edgeStyle=orthogonalEdgeStyle;rounded=0;orthogonalLoop=1;jettySize=auto;html=1;exitX=0;exitY=0.5;exitDx=0;exitDy=0;strokeWidth=3;" parent="1" source="Sqf56Evtwyqj2rNOYp0b-3" edge="1">
          <mxGeometry relative="1" as="geometry">
            <mxPoint x="364.07696063701906" y="469.46153846153834" as="targetPoint" />
          </mxGeometry>
        </mxCell>
        <mxCell id="Sqf56Evtwyqj2rNOYp0b-3" value="&lt;font style=&quot;font-size: 24px;&quot;&gt;Timer1&lt;/font&gt;" style="rounded=0;whiteSpace=wrap;html=1;strokeWidth=3;" parent="1" vertex="1">
          <mxGeometry x="580" y="439" width="120" height="60" as="geometry" />
        </mxCell>
        <mxCell id="Sqf56Evtwyqj2rNOYp0b-17" style="edgeStyle=orthogonalEdgeStyle;rounded=0;orthogonalLoop=1;jettySize=auto;html=1;exitX=0;exitY=0.5;exitDx=0;exitDy=0;entryX=1;entryY=0.5;entryDx=0;entryDy=0;strokeWidth=3;" parent="1" source="Sqf56Evtwyqj2rNOYp0b-4" target="Sqf56Evtwyqj2rNOYp0b-7" edge="1">
          <mxGeometry relative="1" as="geometry">
            <mxPoint x="341.923123873197" y="656.8461350661057" as="targetPoint" />
          </mxGeometry>
        </mxCell>
        <mxCell id="Sqf56Evtwyqj2rNOYp0b-4" value="&lt;font style=&quot;font-size: 24px;&quot;&gt;UART&lt;/font&gt;" style="rounded=0;whiteSpace=wrap;html=1;strokeWidth=3;" parent="1" vertex="1">
          <mxGeometry x="580" y="604" width="120" height="60" as="geometry" />
        </mxCell>
        <mxCell id="Sqf56Evtwyqj2rNOYp0b-12" style="edgeStyle=orthogonalEdgeStyle;rounded=0;orthogonalLoop=1;jettySize=auto;html=1;exitX=1;exitY=0.25;exitDx=0;exitDy=0;entryX=0;entryY=0.5;entryDx=0;entryDy=0;strokeWidth=3;" parent="1" source="Sqf56Evtwyqj2rNOYp0b-5" target="Sqf56Evtwyqj2rNOYp0b-9" edge="1">
          <mxGeometry relative="1" as="geometry" />
        </mxCell>
        <mxCell id="Sqf56Evtwyqj2rNOYp0b-5" value="&lt;font style=&quot;font-size: 24px;&quot;&gt;ADC&lt;/font&gt;" style="rounded=0;whiteSpace=wrap;html=1;strokeWidth=3;" parent="1" vertex="1">
          <mxGeometry x="985" y="439" width="120" height="60" as="geometry" />
        </mxCell>
        <mxCell id="Sqf56Evtwyqj2rNOYp0b-13" style="edgeStyle=orthogonalEdgeStyle;rounded=0;orthogonalLoop=1;jettySize=auto;html=1;exitX=1;exitY=0.5;exitDx=0;exitDy=0;strokeWidth=3;entryX=0;entryY=0.5;entryDx=0;entryDy=0;" parent="1" source="Sqf56Evtwyqj2rNOYp0b-6" edge="1" target="Sqf56Evtwyqj2rNOYp0b-10">
          <mxGeometry relative="1" as="geometry">
            <mxPoint x="1330.2308067908652" y="639.6153940054087" as="targetPoint" />
          </mxGeometry>
        </mxCell>
        <mxCell id="Sqf56Evtwyqj2rNOYp0b-14" style="edgeStyle=orthogonalEdgeStyle;rounded=0;orthogonalLoop=1;jettySize=auto;html=1;exitX=1;exitY=0.75;exitDx=0;exitDy=0;entryX=0;entryY=0.5;entryDx=0;entryDy=0;strokeWidth=3;" parent="1" source="Sqf56Evtwyqj2rNOYp0b-6" target="Sqf56Evtwyqj2rNOYp0b-11" edge="1">
          <mxGeometry relative="1" as="geometry" />
        </mxCell>
        <mxCell id="Sqf56Evtwyqj2rNOYp0b-6" value="&lt;font style=&quot;font-size: 24px;&quot;&gt;DIO&lt;/font&gt;" style="rounded=0;whiteSpace=wrap;html=1;strokeWidth=3;" parent="1" vertex="1">
          <mxGeometry x="985" y="604" width="120" height="60" as="geometry" />
        </mxCell>
        <mxCell id="Sqf56Evtwyqj2rNOYp0b-7" value="&lt;font style=&quot;font-size: 24px;&quot;&gt;USB to TTL&lt;/font&gt;" style="rounded=0;whiteSpace=wrap;html=1;strokeWidth=3;" parent="1" vertex="1">
          <mxGeometry x="154" y="602" width="176" height="64" as="geometry" />
        </mxCell>
        <mxCell id="Sqf56Evtwyqj2rNOYp0b-8" value="&lt;font style=&quot;font-size: 24px;&quot;&gt;FreeRTOS&lt;/font&gt;" style="rounded=0;whiteSpace=wrap;html=1;strokeWidth=3;" parent="1" vertex="1">
          <mxGeometry x="134" y="439" width="223" height="60" as="geometry" />
        </mxCell>
        <mxCell id="Sqf56Evtwyqj2rNOYp0b-9" value="&lt;font style=&quot;font-size: 24px;&quot;&gt;Temperature NTC&lt;/font&gt;" style="rounded=0;whiteSpace=wrap;html=1;strokeWidth=3;" parent="1" vertex="1">
          <mxGeometry x="1285" y="350" width="333" height="60" as="geometry" />
        </mxCell>
        <mxCell id="Sqf56Evtwyqj2rNOYp0b-10" value="&lt;font style=&quot;font-size: 24px;&quot;&gt;LCD&lt;/font&gt;" style="rounded=0;whiteSpace=wrap;html=1;strokeWidth=3;" parent="1" vertex="1">
          <mxGeometry x="1369" y="565" width="120" height="60" as="geometry" />
        </mxCell>
        <mxCell id="Sqf56Evtwyqj2rNOYp0b-11" value="&lt;font style=&quot;font-size: 24px;&quot;&gt;Red Led&lt;/font&gt;" style="rounded=0;whiteSpace=wrap;html=1;strokeWidth=3;" parent="1" vertex="1">
          <mxGeometry x="1369" y="664" width="120" height="60" as="geometry" />
        </mxCell>
        <mxCell id="RvuhnSBwYaDeOerBl5FE-1" style="edgeStyle=orthogonalEdgeStyle;rounded=0;orthogonalLoop=1;jettySize=auto;html=1;exitX=0.5;exitY=1;exitDx=0;exitDy=0;" edge="1" parent="1" source="Sqf56Evtwyqj2rNOYp0b-10" target="Sqf56Evtwyqj2rNOYp0b-10">
          <mxGeometry relative="1" as="geometry" />
        </mxCell>
      </root>
    </mxGraphModel>
  </diagram>
</mxfile>
